<?xml version="1.0" encoding="UTF-8" standalone="no"?>
<!-- Generator: Gravit.io -->
<svg xmlns="http://www.w3.org/2000/svg" xmlns:xlink="http://www.w3.org/1999/xlink" style="isolation:isolate" viewBox="0 0 86 86" width="86pt" height="86pt"><defs><clipPath id="_clipPath_u0bsNskI74q2q4fW92pI9cvkqgZOipmw"><rect width="86" height="86"/></clipPath></defs><g clip-path="url(#_clipPath_u0bsNskI74q2q4fW92pI9cvkqgZOipmw)"><path d="M 8.98 1 L 77.02 1 C 81.424 1 85 4.576 85 8.98 L 85 77.02 C 85 81.424 81.424 85 77.02 85 L 8.98 85 C 4.576 85 1 81.424 1 77.02 L 1 8.98 C 1 4.576 4.576 1 8.98 1 Z" style="stroke:none;fill:#000000;stroke-miterlimit:10;"/><path d=" M 16.944 26.152 L 38.592 26.152 L 38.592 30.472 L 23.28 54.328 L 38.544 54.328 L 38.544 59.752 L 15.888 59.752 L 15.888 55.432 L 31.104 31.528 L 16.944 31.528 L 16.944 26.152 L 16.944 26.152 Z  M 58.512 34.648 L 58.512 34.648 L 58.512 34.648 Q 62.544 34.648 65.064 37.072 L 65.064 37.072 L 65.064 37.072 Q 67.584 39.496 67.584 44.776 L 67.584 44.776 L 67.584 59.752 L 62.064 59.752 L 62.064 45.928 L 62.064 45.928 Q 62.064 42.76 60.672 41.32 L 60.672 41.32 L 60.672 41.32 Q 59.28 39.88 56.976 39.88 L 56.976 39.88 L 56.976 39.88 Q 51.552 39.88 51.552 45.832 L 51.552 45.832 L 51.552 59.752 L 46.032 59.752 L 46.032 35.224 L 51.12 35.224 L 51.12 38.248 L 51.12 38.248 Q 51.84 36.808 53.928 35.728 L 53.928 35.728 L 53.928 35.728 Q 56.016 34.648 58.512 34.648 Z " fill="rgb(255,255,255)"/></g></svg>